<svg aria-hidden="true" style="position:absolute;width:0;height:0;overflow:hidden" xmlns="http://www.w3.org/2000/svg">
  <defs>
    <symbol id="icon-back-home" viewBox="0 0 21 32">
      <path d="M2.005 18.261a3.2 3.2 0 0 1 0-4.522l12.066-12.07a3.2 3.2 0 1 1 4.524 4.527l-9.803 9.805 9.805 9.805a3.2 3.2 0 0 1 .042 4.564 3.196 3.196 0 0 1-2.29.938 3.2 3.2 0 0 1-2.274-.976l-12.07-12.07z"/>
    </symbol>
    <symbol id="icon-burger-menu" viewBox="0 0 32 32">
      <path d="M4 24v-2.667h24V24H4zm0-6.667v-2.667h24v2.667H4zm0-6.666V8h24v2.667H4z"/>
    </symbol>

<symbol id="icon-google-play" viewBox="0 0 31 32">
<path fill="#70c9f3" style="fill: var(--color1, #70c9f3)" d="M1.342 0.589c-0.383 0.37-0.511 0.988-0.511 1.729v27.291c0 0.741 0.256 1.358 0.639 1.729l0.128 0.123 15.843-15.312v-0.37l-16.098-15.189z"></path>
<path fill="#ffe000" style="fill: var(--color2, #ffe000)" d="M22.551 21.211l-5.238-5.063v-0.37l5.238-5.063 0.128 0.123 6.26 3.458c1.789 0.988 1.789 2.593 0 3.581l-6.388 3.334z"></path>
<path fill="#e7383d" style="fill: var(--color3, #e7383d)" d="M22.678 21.211l-5.366-5.186-15.97 15.312c0.639 0.617 1.533 0.617 2.683 0.123l18.654-10.249z"></path>
<path fill="#07c700" style="fill: var(--color4, #07c700)" d="M22.678 10.715l-18.654-10.126c-1.15-0.617-2.044-0.494-2.683 0.123l15.97 15.436 5.366-5.433z"></path>
</symbol>

    <symbol id="icon-google-play-disabled" viewBox="0 0 31 32">
      <path fill="#b2b2b2" style="fill:var(--color1, #b2b2b2)" d="M1.342.589c-.383.37-.511.988-.511 1.729v27.291c0 .741.256 1.358.639 1.729l.128.123 15.843-15.312v-.37L1.343.59z"/>
      <path fill="#666" style="fill:var(--color2, #666)" d="m22.551 21.211-5.238-5.063v-.37l5.238-5.063.128.123 6.26 3.458c1.789.988 1.789 2.593 0 3.581l-6.388 3.334z"/>
      <path fill="#909090" style="fill:var(--color3, #909090)" d="m22.678 21.211-5.366-5.186-15.97 15.312c.639.617 1.533.617 2.683.123l18.654-10.249z"/>
      <path fill="#5e5e5e" style="fill:var(--color4, #5e5e5e)" d="M22.678 10.715 4.024.589C2.874-.028 1.98.095 1.341.712l15.97 15.436 5.366-5.433z"/>
    </symbol>

    <symbol id="icon-x-close" viewBox="0 0 32 32">
      <path d="M3.2 32 0 28.8 12.8 16 0 3.2 3.2 0 16 12.8 28.8 0 32 3.2 19.2 16 32 28.8 28.8 32 16 19.2 3.2 32z"/>
    </symbol>
  </defs>
</svg>
